<mxfile host="65bd71144e">
    <diagram id="e9O_3hvb17wW2HxE4Aac" name="Page-1">
        <mxGraphModel dx="1307" dy="421" grid="1" gridSize="10" guides="1" tooltips="1" connect="1" arrows="1" fold="1" page="1" pageScale="1" pageWidth="850" pageHeight="1100" math="0" shadow="0">
            <root>
                <mxCell id="0"/>
                <mxCell id="1" parent="0"/>
                <mxCell id="3" value="Data login sistem" style="edgeStyle=none;html=1;fontFamily=Times New Roman;fontSize=14;fillColor=none;strokeColor=#000000;shadow=1;" edge="1" parent="1" source="6" target="7">
                    <mxGeometry relative="1" as="geometry"/>
                </mxCell>
                <mxCell id="5" value="Info login sistem&amp;nbsp;" style="edgeStyle=none;html=1;fontFamily=Times New Roman;fontSize=14;fillColor=none;strokeColor=#000000;shadow=1;" edge="1" parent="1" source="6" target="12">
                    <mxGeometry relative="1" as="geometry"/>
                </mxCell>
                <mxCell id="6" value="&lt;div&gt;&lt;font face=&quot;Times New Roman&quot;&gt;&lt;span style=&quot;font-size: 14px;&quot;&gt;0.&lt;/span&gt;&lt;/font&gt;&lt;/div&gt;&lt;font face=&quot;Times New Roman&quot;&gt;&lt;span style=&quot;font-size: 14px;&quot;&gt;Sistem absensi&lt;/span&gt;&lt;/font&gt;" style="shape=ellipse;html=1;dashed=0;whitespace=wrap;aspect=fixed;perimeter=ellipsePerimeter;fillColor=none;strokeColor=#000000;shadow=1;" vertex="1" parent="1">
                    <mxGeometry x="360" y="230" width="100" height="100" as="geometry"/>
                </mxCell>
                <mxCell id="7" value="Data base&amp;nbsp;" style="html=1;dashed=0;whitespace=wrap;shape=partialRectangle;right=0;left=0;fontFamily=Times New Roman;fontSize=14;fillColor=none;strokeColor=#000000;shadow=1;" vertex="1" parent="1">
                    <mxGeometry x="360" y="70" width="100" height="30" as="geometry"/>
                </mxCell>
                <mxCell id="8" value="" style="edgeStyle=none;html=1;entryX=0;entryY=0;entryDx=0;entryDy=0;strokeColor=#000000;fontFamily=Times New Roman;fontSize=14;fillColor=#000000;shadow=1;exitX=0.5;exitY=0;exitDx=0;exitDy=0;" edge="1" parent="1" source="9" target="6">
                    <mxGeometry x="0.0703" y="30" relative="1" as="geometry">
                        <Array as="points">
                            <mxPoint x="80" y="220"/>
                            <mxPoint x="370" y="220"/>
                        </Array>
                        <mxPoint as="offset"/>
                        <mxPoint x="100" y="265" as="sourcePoint"/>
                        <mxPoint x="394.6446609406727" y="254.64466094067257" as="targetPoint"/>
                    </mxGeometry>
                </mxCell>
                <mxCell id="15" value="Login admin masukan email dan password&amp;nbsp;&lt;div&gt;edit data pegawai&amp;nbsp;&lt;div&gt;&lt;div&gt;Input data pegawai&amp;nbsp;&lt;/div&gt;&lt;div&gt;edit data admin&amp;nbsp;&lt;/div&gt;&lt;div&gt;input data admin&lt;/div&gt;&lt;div&gt;konfigurasi koordinat&lt;/div&gt;&lt;/div&gt;&lt;div&gt;konfigurasi&amp;nbsp; jam kerja&amp;nbsp;&lt;/div&gt;&lt;/div&gt;" style="edgeLabel;html=1;align=center;verticalAlign=middle;resizable=0;points=[];strokeColor=none;" vertex="1" connectable="0" parent="8">
                    <mxGeometry x="0.0555" y="1" relative="1" as="geometry">
                        <mxPoint x="-10" y="-19" as="offset"/>
                    </mxGeometry>
                </mxCell>
                <mxCell id="9" value="Admin" style="html=1;dashed=0;whitespace=wrap;fontFamily=Times New Roman;fontSize=14;fillColor=none;strokeColor=#000000;shadow=1;" vertex="1" parent="1">
                    <mxGeometry x="30" y="255" width="100" height="50" as="geometry"/>
                </mxCell>
                <mxCell id="10" style="edgeStyle=none;html=1;entryX=1;entryY=0;entryDx=0;entryDy=0;strokeColor=#000000;fontFamily=Times New Roman;fontSize=14;fillColor=#000000;shadow=1;" edge="1" parent="1" source="12" target="6">
                    <mxGeometry relative="1" as="geometry">
                        <Array as="points">
                            <mxPoint x="725" y="220"/>
                            <mxPoint x="445" y="220"/>
                        </Array>
                    </mxGeometry>
                </mxCell>
                <mxCell id="11" value="Login sistem&lt;div&gt;Masukan username dan&amp;nbsp;&lt;span style=&quot;background-color: light-dark(#ffffff, var(--ge-dark-color, #121212)); color: light-dark(rgb(0, 0, 0), rgb(255, 255, 255));&quot;&gt;password&amp;nbsp;&lt;/span&gt;&lt;/div&gt;" style="edgeLabel;html=1;align=center;verticalAlign=middle;resizable=0;points=[];fontSize=14;fontFamily=Times New Roman;shadow=1;" vertex="1" connectable="0" parent="10">
                    <mxGeometry x="-0.098" y="-4" relative="1" as="geometry">
                        <mxPoint x="-12" y="-26" as="offset"/>
                    </mxGeometry>
                </mxCell>
                <mxCell id="12" value="Pegawai" style="html=1;dashed=0;whitespace=wrap;fontFamily=Times New Roman;fontSize=14;fillColor=none;strokeColor=#000000;shadow=1;" vertex="1" parent="1">
                    <mxGeometry x="675" y="255" width="100" height="50" as="geometry"/>
                </mxCell>
                <mxCell id="13" value="" style="edgeStyle=none;html=1;strokeColor=#000000;fontFamily=Times New Roman;fontSize=14;fillColor=#000000;shadow=1;exitX=0.5;exitY=1;exitDx=0;exitDy=0;" edge="1" parent="1" source="9">
                    <mxGeometry x="0.0703" y="30" relative="1" as="geometry">
                        <Array as="points">
                            <mxPoint x="125" y="350"/>
                            <mxPoint x="280" y="340"/>
                        </Array>
                        <mxPoint x="155" y="265" as="sourcePoint"/>
                        <mxPoint x="250" y="305" as="targetPoint"/>
                        <mxPoint as="offset"/>
                    </mxGeometry>
                </mxCell>
                <mxCell id="14" value="&lt;font face=&quot;Times New Roman&quot;&gt;&lt;span style=&quot;font-size: 14px;&quot;&gt;Laporan data absensi guru dan status izin pegawai&amp;nbsp;&lt;/span&gt;&lt;/font&gt;" style="edgeLabel;html=1;align=center;verticalAlign=middle;resizable=0;points=[];" vertex="1" connectable="0" parent="13">
                    <mxGeometry x="-0.001" y="-3" relative="1" as="geometry">
                        <mxPoint x="10" y="17" as="offset"/>
                    </mxGeometry>
                </mxCell>
            </root>
        </mxGraphModel>
    </diagram>
</mxfile>